<svg xmlns="http://www.w3.org/2000/svg" viewBox="0 0 1200 860" width="1200" height="860">
  <defs>
    <marker id="arrowA" markerWidth="10" markerHeight="7" refX="9" refY="3.5" orient="auto">
      <polygon points="0 0, 10 3.5, 0 7" fill="#d97757"/>
    </marker>
    <marker id="arrowB" markerWidth="10" markerHeight="7" refX="9" refY="3.5" orient="auto">
      <polygon points="0 0, 10 3.5, 0 7" fill="#7b8b5c"/>
    </marker>
    <marker id="arrowC" markerWidth="10" markerHeight="7" refX="9" refY="3.5" orient="auto">
      <polygon points="0 0, 10 3.5, 0 7" fill="#8c6f5a"/>
    </marker>
    <marker id="arrowE" markerWidth="10" markerHeight="7" refX="9" refY="3.5" orient="auto">
      <polygon points="0 0, 10 3.5, 0 7" fill="#b45309"/>
    </marker>
    <marker id="arrowF" markerWidth="10" markerHeight="7" refX="9" refY="3.5" orient="auto">
      <polygon points="0 0, 10 3.5, 0 7" fill="#9a6fb0"/>
    </marker>
    <marker id="arrowG" markerWidth="10" markerHeight="7" refX="9" refY="3.5" orient="auto">
      <polygon points="0 0, 10 3.5, 0 7" fill="#d97757"/>
    </marker>
    <marker id="arrowH" markerWidth="10" markerHeight="7" refX="9" refY="3.5" orient="auto">
      <polygon points="0 0, 10 3.5, 0 7" fill="#8f8a80"/>
    </marker>
    <style>
    text { font-family: -apple-system, BlinkMacSystemFont, 'Segoe UI', 'Helvetica Neue', Arial, 'PingFang SC', 'Microsoft YaHei', 'Microsoft JhengHei', 'SimHei', sans-serif; }
    .title { font-size: 24px; font-weight: 700; fill: #141413; }
    .subtitle { font-size: 13px; font-weight: 500; fill: #8f8a80; }
    .section { font-size: 13px; font-weight: 700; fill: #8b7355; letter-spacing: 1.4px; }
    .section-sub { font-size: 12px; font-weight: 500; fill: #b4aba0; }
    .node-title { font-size: 18px; font-weight: 700; fill: #141413; }
    .node-sub { font-size: 12px; font-weight: 500; fill: #6b6257; }
    .node-type { font-size: 11px; font-weight: 700; fill: #a29a8f; letter-spacing: 0.08em; }
    .arrow-label { font-size: 12px; font-weight: 600; fill: #6b6257; }
    .legend { font-size: 12px; font-weight: 500; fill: #6b6257; }
    .footnote { font-size: 12px; font-weight: 500; fill: #a29a8f; }
    </style>
  </defs>
  <rect width="1200.0" height="860.0" fill="#f8f6f3"/>
  <text x="48.0" y="48" text-anchor="start" class="title">Pipeline v2 LangGraph Flow</text>
  <text x="48.0" y="72" text-anchor="start" class="subtitle">Claude explores and plans; Codex implements, reviews, tests, and prepares submission under human gates</text>
  <line x1="48" y1="100" x2="1152.0" y2="100" stroke="#ded8cf" stroke-width="1"/>
  <rect x="48.0" y="108.0" width="1104.0" height="128.0" rx="16.0" fill="none" stroke="#ded8cf" stroke-width="1.4" stroke-dasharray="5 4"/>
  <text x="66.0" y="132.0" class="section">DISCOVERY + PLAN</text>
  <rect x="48.0" y="276.0" width="1104.0" height="178.0" rx="16.0" fill="none" stroke="#ded8cf" stroke-width="1.4" stroke-dasharray="5 4"/>
  <text x="66.0" y="300.0" class="section">IMPLEMENTATION + REVIEW LOOP</text>
  <rect x="48.0" y="494.0" width="1104.0" height="112.0" rx="16.0" fill="none" stroke="#ded8cf" stroke-width="1.4" stroke-dasharray="5 4"/>
  <text x="66.0" y="518.0" class="section">VALIDATION + SUBMISSION</text>
  <rect x="48.0" y="646.0" width="1104.0" height="92.0" rx="16.0" fill="none" stroke="#ded8cf" stroke-width="1.4" stroke-dasharray="5 4"/>
  <text x="66.0" y="670.0" class="section">EVIDENCE + RECOVERY</text>
  <path d="M 208.0,171.0 L 248.0,171.0" fill="none" stroke="#d97757" stroke-width="2.1" marker-end="url(#arrowA)"/>
  <path d="M 394.0,171.0 L 434.0,171.0" fill="none" stroke="#b45309" stroke-width="2.1" marker-end="url(#arrowE)"/>
  <path d="M 588.0,171.0 L 628.0,171.0" fill="none" stroke="#d97757" stroke-width="2.1" marker-end="url(#arrowA)"/>
  <path d="M 774.0,171.0 L 814.0,171.0" fill="none" stroke="#b45309" stroke-width="2.1" marker-end="url(#arrowE)"/>
  <path d="M 895.0,206.0 L 895.0,256.0 L 248.0,256.0 L 248.0,322.0" fill="none" stroke="#d97757" stroke-width="2.1" marker-end="url(#arrowA)"/>
  <path d="M 330.0,358.0 L 380.0,358.0" fill="none" stroke="#b45309" stroke-width="2.1" marker-end="url(#arrowE)"/>
  <path d="M 540.0,358.0 L 590.0,358.0" fill="none" stroke="#d97757" stroke-width="2.1" marker-end="url(#arrowA)"/>
  <path d="M 672.0,394.0 L 672.0,474.0 L 248.0,474.0 L 248.0,526.0" fill="none" stroke="#d97757" stroke-width="2.1" marker-end="url(#arrowA)"/>
  <path d="M 590.0,358.0 L 570.0,358.0 L 570.0,276.0 L 248.0,276.0 L 248.0,322.0" fill="none" stroke="#d97757" stroke-width="2.1" marker-end="url(#arrowA)" stroke-dasharray="6,4"/>
  <path d="M 754.0,358.0 L 804.0,358.0" fill="none" stroke="#d97757" stroke-width="2.1" marker-end="url(#arrowA)" stroke-dasharray="6,4"/>
  <path d="M 888.0,394.0 L 888.0,474.0 L 248.0,474.0 L 248.0,322.0" fill="none" stroke="#d97757" stroke-width="2.1" marker-end="url(#arrowA)" stroke-dasharray="6,4"/>
  <path d="M 330.0,555.0 L 380.0,555.0" fill="none" stroke="#b45309" stroke-width="2.1" marker-end="url(#arrowE)"/>
  <path d="M 540.0,555.0 L 590.0,555.0" fill="none" stroke="#d97757" stroke-width="2.1" marker-end="url(#arrowA)"/>
  <path d="M 460.0,526.0 L 460.0,474.0 L 248.0,474.0 L 248.0,394.0" fill="none" stroke="#d97757" stroke-width="2.1" marker-end="url(#arrowA)" stroke-dasharray="6,4"/>
  <path d="M 754.0,555.0 L 804.0,555.0" fill="none" stroke="#b45309" stroke-width="2.1" marker-end="url(#arrowE)"/>
  <path d="M 972.0,555.0 L 1016.0,555.0" fill="none" stroke="#d97757" stroke-width="2.1" marker-end="url(#arrowA)"/>
  <path d="M 248.0,394.0 L 248.0,414.4 L 120.0,414.4 L 120.0,646.0 L 201.0,646.0 L 201.0,674.0" fill="none" stroke="#7b8b5c" stroke-width="2.1" marker-end="url(#arrowB)" stroke-dasharray="6,4"/>
  <path d="M 248.0,584.0 L 248.0,636.0 L 201.0,636.0 L 201.0,674.0" fill="none" stroke="#7b8b5c" stroke-width="2.1" marker-end="url(#arrowB)" stroke-dasharray="6,4"/>
  <path d="M 701.0,206.0 L 701.0,244.0 L 40.0,244.0 L 40.0,630.0 L 701.0,630.0 L 201.0,630.0 L 201.0,674.0" fill="none" stroke="#7b8b5c" stroke-width="2.1" marker-end="url(#arrowB)" stroke-dasharray="6,4"/>
  <path d="M 888.0,584.0 L 888.0,608.0 L 1023.0,608.0 L 1023.0,674.0" fill="none" stroke="#d97757" stroke-width="2.1" marker-end="url(#arrowA)"/>
  <path d="M 670.0,701.0 L 606.0,701.0" fill="none" stroke="#8c6f5a" stroke-width="2.1" marker-end="url(#arrowC)"/>
  <rect x="76.0" y="142.0" width="132.0" height="58.0" rx="12.0" fill="#a8c5e6" stroke="#4a4a4a" stroke-width="2.2"/>
  <text x="142.0" y="160.0" text-anchor="middle" class="node-type">INPUT</text>
  <text x="142.0" y="177.0" text-anchor="middle" class="node-title">User Goal</text>
  <text x="142.0" y="199.0" text-anchor="middle" class="node-sub">contribution target</text>
  <rect x="248.0" y="136.0" width="146.0" height="70.0" rx="12.0" fill="#9dd4c7" stroke="#4a4a4a" stroke-width="2.2"/>
  <text x="321.0" y="154.0" text-anchor="middle" class="node-type">CLAUDE</text>
  <text x="321.0" y="177.0" text-anchor="middle" class="node-title">Explorer</text>
  <text x="321.0" y="199.0" text-anchor="middle" class="node-sub">repo scan + candidates</text>
  <rect x="434.0" y="136.0" width="154.0" height="70.0" rx="12.0" fill="#a8c5e6" stroke="#4a4a4a" stroke-width="2.2"/>
  <text x="511.0" y="154.0" text-anchor="middle" class="node-type">HUMAN</text>
  <text x="511.0" y="177.0" text-anchor="middle" class="node-title">Task Gate</text>
  <text x="511.0" y="199.0" text-anchor="middle" class="node-sub">task_selection</text>
  <rect x="628.0" y="136.0" width="146.0" height="70.0" rx="12.0" fill="#9dd4c7" stroke="#4a4a4a" stroke-width="2.2"/>
  <text x="701.0" y="154.0" text-anchor="middle" class="node-type">CLAUDE</text>
  <text x="701.0" y="177.0" text-anchor="middle" class="node-title">Planner</text>
  <text x="701.0" y="199.0" text-anchor="middle" class="node-sub">plan + risk path</text>
  <rect x="814.0" y="136.0" width="162.0" height="70.0" rx="12.0" fill="#a8c5e6" stroke="#4a4a4a" stroke-width="2.2"/>
  <text x="895.0" y="154.0" text-anchor="middle" class="node-type">HUMAN</text>
  <text x="895.0" y="177.0" text-anchor="middle" class="node-title">Plan Gate</text>
  <text x="895.0" y="199.0" text-anchor="middle" class="node-sub">document_review</text>
  <rect x="166.0" y="322.0" width="164.0" height="72.0" rx="12.0" fill="#9dd4c7" stroke="#4a4a4a" stroke-width="2.2"/>
  <text x="248.0" y="340.0" text-anchor="middle" class="node-type">CODEX</text>
  <text x="248.0" y="364.0" text-anchor="middle" class="node-title">Developer</text>
  <text x="248.0" y="386.0" text-anchor="middle" class="node-sub">workspace-write</text>
  <rect x="380.0" y="322.0" width="160.0" height="72.0" rx="12.0" fill="#a8c5e6" stroke="#4a4a4a" stroke-width="2.2"/>
  <text x="460.0" y="340.0" text-anchor="middle" class="node-type">HUMAN</text>
  <text x="460.0" y="364.0" text-anchor="middle" class="node-title">Dev Gate</text>
  <text x="460.0" y="386.0" text-anchor="middle" class="node-sub">document_review</text>
  <rect x="590.0" y="322.0" width="164.0" height="72.0" rx="12.0" fill="#9dd4c7" stroke="#4a4a4a" stroke-width="2.2"/>
  <text x="672.0" y="340.0" text-anchor="middle" class="node-type">CODEX</text>
  <text x="672.0" y="364.0" text-anchor="middle" class="node-title">Reviewer</text>
  <text x="672.0" y="386.0" text-anchor="middle" class="node-sub">read-only diff audit</text>
  <rect x="804.0" y="322.0" width="168.0" height="72.0" rx="12.0" fill="#a8c5e6" stroke="#4a4a4a" stroke-width="2.2"/>
  <text x="888.0" y="340.0" text-anchor="middle" class="node-type">HUMAN</text>
  <text x="888.0" y="364.0" text-anchor="middle" class="node-title">Review Gate</text>
  <text x="888.0" y="386.0" text-anchor="middle" class="node-sub">after 3 failures</text>
  <rect x="166.0" y="526.0" width="164.0" height="58.0" rx="12.0" fill="#9dd4c7" stroke="#4a4a4a" stroke-width="2.2"/>
  <text x="248.0" y="544.0" text-anchor="middle" class="node-type">CODEX</text>
  <text x="248.0" y="561.0" text-anchor="middle" class="node-title">Tester</text>
  <text x="248.0" y="583.0" text-anchor="middle" class="node-sub">evidence + patch-set</text>
  <rect x="380.0" y="526.0" width="160.0" height="58.0" rx="12.0" fill="#a8c5e6" stroke="#4a4a4a" stroke-width="2.2"/>
  <text x="460.0" y="544.0" text-anchor="middle" class="node-type">HUMAN</text>
  <text x="460.0" y="561.0" text-anchor="middle" class="node-title">Test Gate</text>
  <text x="460.0" y="583.0" text-anchor="middle" class="node-sub">test_blocked risk</text>
  <rect x="590.0" y="526.0" width="164.0" height="58.0" rx="12.0" fill="#9dd4c7" stroke="#4a4a4a" stroke-width="2.2"/>
  <text x="672.0" y="544.0" text-anchor="middle" class="node-type">CODEX</text>
  <text x="672.0" y="561.0" text-anchor="middle" class="node-title">Committer</text>
  <text x="672.0" y="583.0" text-anchor="middle" class="node-sub">commit + PR draft</text>
  <rect x="804.0" y="526.0" width="168.0" height="58.0" rx="12.0" fill="#a8c5e6" stroke="#4a4a4a" stroke-width="2.2"/>
  <text x="888.0" y="544.0" text-anchor="middle" class="node-type">HUMAN</text>
  <text x="888.0" y="561.0" text-anchor="middle" class="node-title">Submit Gate</text>
  <text x="888.0" y="583.0" text-anchor="middle" class="node-sub">submission_review</text>
  <rect x="1016.0" y="526.0" width="98.0" height="58.0" rx="12.0" fill="#e8e6e3" stroke="#4a4a4a" stroke-width="2.2"/>
  <text x="1065.0" y="544.0" text-anchor="middle" class="node-type">STATE</text>
  <text x="1065.0" y="561.0" text-anchor="middle" class="node-title">Done</text>
  <text x="1065.0" y="583.0" text-anchor="middle" class="node-sub">completed</text>
  <rect x="86.0" y="674.0" width="230.0" height="54.0" rx="12.0" fill="#e8e6e3" stroke="#4a4a4a" stroke-width="2.2"/>
  <text x="201.0" y="692.0" text-anchor="middle" class="node-type">REPO FACTS</text>
  <text x="201.0" y="707.0" text-anchor="middle" class="node-title">./patch-work</text>
  <text x="201.0" y="729.0" text-anchor="middle" class="node-sub">plan/dev/review/result/pr</text>
  <rect x="380.0" y="674.0" width="226.0" height="54.0" rx="12.0" fill="#e8e6e3" stroke="#4a4a4a" stroke-width="2.2"/>
  <text x="493.0" y="692.0" text-anchor="middle" class="node-type">RECOVERY</text>
  <text x="493.0" y="707.0" text-anchor="middle" class="node-title">Checkpoints</text>
  <text x="493.0" y="729.0" text-anchor="middle" class="node-sub">MemorySaver on disk</text>
  <rect x="670.0" y="674.0" width="220.0" height="54.0" rx="12.0" fill="#e8e6e3" stroke="#4a4a4a" stroke-width="2.2"/>
  <text x="780.0" y="692.0" text-anchor="middle" class="node-type">AUDIT</text>
  <text x="780.0" y="707.0" text-anchor="middle" class="node-title">Pipeline Records</text>
  <text x="780.0" y="729.0" text-anchor="middle" class="node-sub">JSONL stream history</text>
  <rect x="950.0" y="674.0" width="146.0" height="54.0" rx="12.0" fill="#f4e4c1" stroke="#4a4a4a" stroke-width="2.2"/>
  <text x="1023.0" y="692.0" text-anchor="middle" class="node-type">GUARD</text>
  <text x="1023.0" y="707.0" text-anchor="middle" class="node-title">Remote Write</text>
  <text x="1023.0" y="729.0" text-anchor="middle" class="node-sub">confirm before push/PR</text>
  <rect x="914.0" y="724.0" width="254" height="112" rx="10" fill="#fffaf3" opacity="0.94"/>
  <line x1="924.0" y1="738.0" x2="954.0" y2="738.0" stroke="#d97757" stroke-width="2.1" marker-end="url(#arrowA)"/>
  <text x="964.0" y="742.0" class="legend">gate-controlled transition</text>
  <line x1="924.0" y1="760.0" x2="954.0" y2="760.0" stroke="#b45309" stroke-width="2.1" marker-end="url(#arrowE)"/>
  <text x="964.0" y="764.0" class="legend">stage output</text>
  <line x1="924.0" y1="782.0" x2="954.0" y2="782.0" stroke="#d97757" stroke-width="2.1" marker-end="url(#arrowA)"/>
  <text x="964.0" y="786.0" class="legend">rerun / repair loop</text>
  <line x1="924.0" y1="804.0" x2="954.0" y2="804.0" stroke="#7b8b5c" stroke-width="2.1" marker-end="url(#arrowB)"/>
  <text x="964.0" y="808.0" class="legend">documented evidence</text>
  <text x="42.0" y="844.0" class="footnote">v1 compatibility remains; v2 default adds Developer gate and Committer stage.</text>
</svg>
