<svg xmlns="http://www.w3.org/2000/svg" viewBox="0 0 1200 800" width="1200" height="800">

  <defs>
    <marker id="arrow" markerWidth="10" markerHeight="8" refX="8.5" refY="4" orient="auto">
      <polygon points="0 0, 10 4, 0 8" fill="#6f6256"/>
    </marker>
    <style>
      text { font-family: -apple-system, BlinkMacSystemFont, 'Segoe UI', 'Helvetica Neue', Arial, 'PingFang SC', 'Microsoft YaHei', 'Microsoft JhengHei', 'SimHei', sans-serif; letter-spacing: 0; }
      .title { font-size: 28px; font-weight: 800; fill: #1a1a1a; }
      .subtitle { font-size: 14px; font-weight: 600; fill: #8f8a80; }
      .section { font-size: 13px; font-weight: 800; fill: #8b7355; letter-spacing: 3px; }
      .node-type { font-size: 11px; font-weight: 800; fill: #9d9388; letter-spacing: 2.5px; }
      .node-title { font-weight: 800; fill: #1a1a1a; }
      .node-sub { font-size: 12px; font-weight: 650; fill: #6b6257; }
      .footnote { font-size: 12px; font-weight: 650; fill: #a29a8f; }
      .legend { font-size: 12px; font-weight: 750; fill: #6b6257; }
    </style>
  </defs>

<rect width="1200" height="800" fill="#f8f6f3"/>
<text x="48" y="48" text-anchor="start" class="title">CodeInsights System Architecture</text>
<text x="48" y="75" text-anchor="start" class="subtitle">Electron boundaries, Bun workspace packages, coding runtimes, and local-first state</text>
<line x1="48" y1="96" x2="1152" y2="96" stroke="#ded8cf" stroke-width="1.2"/>
<rect x="48" y="120" width="1104" height="118" rx="16" fill="none" stroke="#ded8cf" stroke-width="1.4" stroke-dasharray="6 6"/>
<rect x="48" y="270" width="1104" height="118" rx="16" fill="none" stroke="#ded8cf" stroke-width="1.4" stroke-dasharray="6 6"/>
<rect x="48" y="420" width="1104" height="128" rx="16" fill="none" stroke="#ded8cf" stroke-width="1.4" stroke-dasharray="6 6"/>
<rect x="48" y="585" width="1104" height="110" rx="16" fill="none" stroke="#ded8cf" stroke-width="1.4" stroke-dasharray="6 6"/>
<line x1="275" y1="199" x2="340" y2="199" fill="none" stroke="#6f6256" stroke-width="2.2" marker-end="url(#arrow)"/>
<line x1="520" y1="199" x2="585" y2="199" fill="none" stroke="#6f6256" stroke-width="2.2" marker-end="url(#arrow)"/>
<line x1="300" y1="349" x2="390" y2="349" fill="none" stroke="#6f6256" stroke-width="2.2" marker-end="url(#arrow)"/>
<line x1="605" y1="349" x2="695" y2="349" fill="none" stroke="#6f6256" stroke-width="2.2" marker-end="url(#arrow)"/>
<line x1="960" y1="349" x2="905" y2="349" fill="none" stroke="#6f6256" stroke-width="2.2" marker-end="url(#arrow)"/>
<path d="M 800,390 L 800,428 L 182,428 L 182,458" fill="none" stroke="#6f6256" stroke-width="2.2" marker-end="url(#arrow)"/>
<path d="M 800,390 L 800,428 L 437,428 L 437,458" fill="none" stroke="#6f6256" stroke-width="2.2" marker-end="url(#arrow)"/>
<path d="M 800,390 L 800,428 L 697,428 L 697,458" fill="none" stroke="#6f6256" stroke-width="2.2" marker-end="url(#arrow)"/>
<path d="M 800,390 L 800,428 L 952,428 L 952,458" fill="none" stroke="#6f6256" stroke-width="2.2" marker-end="url(#arrow)"/>
<line x1="182" y1="547" x2="195" y2="608" fill="none" stroke="#6f6256" stroke-width="2.2" stroke-dasharray="7 6" marker-end="url(#arrow)"/>
<line x1="437" y1="547" x2="480" y2="608" fill="none" stroke="#6f6256" stroke-width="2.2" marker-end="url(#arrow)"/>
<line x1="697" y1="547" x2="780" y2="608" fill="none" stroke="#6f6256" stroke-width="2.2" stroke-dasharray="7 6" marker-end="url(#arrow)"/>
<line x1="952" y1="547" x2="1035" y2="608" fill="none" stroke="#6f6256" stroke-width="2.2" stroke-dasharray="7 6" marker-end="url(#arrow)"/>
<text x="68" y="154" text-anchor="start" class="section">DESKTOP SURFACE</text>
<text x="68" y="304" text-anchor="start" class="section">SECURE IPC BRIDGE</text>
<text x="68" y="454" text-anchor="start" class="section">ELECTRON MAIN SERVICES</text>
<text x="68" y="606" text-anchor="start" class="section">FOUNDATION + STATE</text>
<g id="renderer">
<rect x="85" y="158" width="190" height="82" rx="12" fill="#a8c5e6" stroke="#4a4a4a" stroke-width="2.3"/>
<text x="180.0" y="180" text-anchor="middle" class="node-type">UI</text>
<text x="180.0" y="208" text-anchor="middle" class="node-title" style="font-size:17px">React Renderer</text>
<text x="180.0" y="230" text-anchor="middle" class="node-sub" style="font-size:12px">Vite + Jotai</text>
</g>
<g id="shell">
<rect x="340" y="158" width="180" height="82" rx="12" fill="#a8c5e6" stroke="#4a4a4a" stroke-width="2.3"/>
<text x="430.0" y="180" text-anchor="middle" class="node-type">NAV</text>
<text x="430.0" y="208" text-anchor="middle" class="node-title" style="font-size:17px">AppShell</text>
<text x="430.0" y="230" text-anchor="middle" class="node-sub" style="font-size:12px">Pipeline | Agent</text>
</g>
<g id="views">
<rect x="585" y="158" width="220" height="82" rx="12" fill="#a8c5e6" stroke="#4a4a4a" stroke-width="2.3"/>
<text x="695.0" y="180" text-anchor="middle" class="node-type">UX</text>
<text x="695.0" y="208" text-anchor="middle" class="node-title" style="font-size:17px">Workbench Views</text>
<text x="695.0" y="230" text-anchor="middle" class="node-sub" style="font-size:12px">records + gates</text>
</g>
<g id="quick">
<rect x="890" y="158" width="185" height="82" rx="12" fill="#a8c5e6" stroke="#4a4a4a" stroke-width="2.3"/>
<text x="982.5" y="180" text-anchor="middle" class="node-type">ENTRY</text>
<text x="982.5" y="208" text-anchor="middle" class="node-title" style="font-size:17px">Quick Task</text>
<text x="982.5" y="230" text-anchor="middle" class="node-sub" style="font-size:12px">shortcut window</text>
</g>
<g id="contracts">
<rect x="90" y="308" width="210" height="82" rx="12" fill="#e8e6e3" stroke="#4a4a4a" stroke-width="2.3"/>
<text x="195.0" y="330" text-anchor="middle" class="node-type">TYPES</text>
<text x="195.0" y="358" text-anchor="middle" class="node-title" style="font-size:17px">Shared Contracts</text>
<text x="195.0" y="380" text-anchor="middle" class="node-sub" style="font-size:12px">@codeinsights/shared</text>
</g>
<g id="preload">
<rect x="390" y="308" width="215" height="82" rx="12" fill="#f4e4c1" stroke="#4a4a4a" stroke-width="2.3"/>
<text x="497.5" y="330" text-anchor="middle" class="node-type">CONTEXT</text>
<text x="497.5" y="358" text-anchor="middle" class="node-title" style="font-size:17px">Preload Bridge</text>
<text x="497.5" y="380" text-anchor="middle" class="node-sub" style="font-size:12px">window.electronAPI</text>
</g>
<g id="ipc">
<rect x="695" y="308" width="210" height="82" rx="12" fill="#f4e4c1" stroke="#4a4a4a" stroke-width="2.3"/>
<text x="800.0" y="330" text-anchor="middle" class="node-type">MAIN</text>
<text x="800.0" y="358" text-anchor="middle" class="node-title" style="font-size:17px">IPC Handlers</text>
<text x="800.0" y="380" text-anchor="middle" class="node-sub" style="font-size:12px">main domains</text>
</g>
<g id="preview">
<rect x="960" y="308" width="150" height="82" rx="12" fill="#f4e4c1" stroke="#4a4a4a" stroke-width="2.3"/>
<text x="1035.0" y="330" text-anchor="middle" class="node-type">VIEW</text>
<text x="1035.0" y="358" text-anchor="middle" class="node-title" style="font-size:17px">File Preview</text>
<text x="1035.0" y="380" text-anchor="middle" class="node-sub" style="font-size:12px">isolated API</text>
</g>
<g id="agent">
<rect x="80" y="465" width="205" height="82" rx="12" fill="#9dd4c7" stroke="#4a4a4a" stroke-width="2.3"/>
<text x="182.5" y="487" text-anchor="middle" class="node-type">AGENT</text>
<text x="182.5" y="515" text-anchor="middle" class="node-title" style="font-size:17px">Agent Services</text>
<text x="182.5" y="537" text-anchor="middle" class="node-sub" style="font-size:12px">orchestrator + runtimes</text>
</g>
<g id="pipeline">
<rect x="330" y="465" width="215" height="82" rx="12" fill="#9dd4c7" stroke="#4a4a4a" stroke-width="2.3"/>
<text x="437.5" y="487" text-anchor="middle" class="node-type">PIPELINE</text>
<text x="437.5" y="515" text-anchor="middle" class="node-title" style="font-size:17px">Pipeline Services</text>
<text x="437.5" y="537" text-anchor="middle" class="node-sub" style="font-size:12px">LangGraph + gates</text>
</g>
<g id="provider">
<rect x="595" y="465" width="205" height="82" rx="12" fill="#9dd4c7" stroke="#4a4a4a" stroke-width="2.3"/>
<text x="697.5" y="487" text-anchor="middle" class="node-type">AI</text>
<text x="697.5" y="515" text-anchor="middle" class="node-title" style="font-size:17px">Provider Core</text>
<text x="697.5" y="537" text-anchor="middle" class="node-sub" style="font-size:12px">channels + adapters</text>
</g>
<g id="bridge">
<rect x="850" y="465" width="205" height="82" rx="12" fill="#9dd4c7" stroke="#4a4a4a" stroke-width="2.3"/>
<text x="952.5" y="487" text-anchor="middle" class="node-type">REMOTE</text>
<text x="952.5" y="515" text-anchor="middle" class="node-title" style="font-size:17px">Bridge Hub</text>
<text x="952.5" y="537" text-anchor="middle" class="node-sub" style="font-size:12px">Feishu / DingTalk</text>
</g>
<g id="packages">
<rect x="90" y="615" width="210" height="72" rx="12" fill="#e8e6e3" stroke="#4a4a4a" stroke-width="2.3"/>
<text x="195.0" y="633" text-anchor="middle" class="node-type">BUN</text>
<text x="195.0" y="658" text-anchor="middle" class="node-title" style="font-size:17px">Workspace Packages</text>
<text x="195.0" y="675" text-anchor="middle" class="node-sub" style="font-size:12px">shared + core + ui</text>
</g>
<g id="runtimes">
<rect x="365" y="615" width="230" height="72" rx="12" fill="#f4e4c1" stroke="#4a4a4a" stroke-width="2.3"/>
<text x="480.0" y="633" text-anchor="middle" class="node-type">SDK/CLI</text>
<text x="480.0" y="658" text-anchor="middle" class="node-title" style="font-size:17px">Coding Runtimes</text>
<text x="480.0" y="675" text-anchor="middle" class="node-sub" style="font-size:12px">Claude / Codex / opencode</text>
</g>
<g id="state">
<rect x="675" y="615" width="210" height="72" rx="12" fill="#e8e6e3" stroke="#4a4a4a" stroke-width="2.3"/>
<text x="780.0" y="633" text-anchor="middle" class="node-type">DISK</text>
<text x="780.0" y="658" text-anchor="middle" class="node-title" style="font-size:17px">Local State</text>
<text x="780.0" y="675" text-anchor="middle" class="node-sub" style="font-size:12px">JSON + JSONL</text>
</g>
<g id="watchers">
<rect x="950" y="615" width="170" height="72" rx="12" fill="#e8e6e3" stroke="#4a4a4a" stroke-width="2.3"/>
<text x="1035.0" y="633" text-anchor="middle" class="node-type">PUSH</text>
<text x="1035.0" y="658" text-anchor="middle" class="node-title" style="font-size:17px">Watchers</text>
<text x="1035.0" y="675" text-anchor="middle" class="node-sub" style="font-size:12px">files + tools</text>
</g>
<g id="legend">
<rect x="912" y="696" width="220" height="64" rx="10" fill="#fffaf3" opacity="0.96"/>
<line x1="930" y1="718" x2="968" y2="718" fill="none" stroke="#6f6256" stroke-width="2.2" marker-end="url(#arrow)"/>
<text x="984" y="723" text-anchor="start" class="legend">primary path</text>
<line x1="930" y1="742" x2="968" y2="742" fill="none" stroke="#6f6256" stroke-width="2.2" stroke-dasharray="7 6" marker-end="url(#arrow)"/>
<text x="984" y="747" text-anchor="start" class="legend">async / persisted state</text>
</g>
<text x="48" y="772" text-anchor="start" class="footnote">Display-oriented view: service responsibilities are inside nodes; only primary paths are drawn.</text>
</svg>
