<svg xmlns="http://www.w3.org/2000/svg" viewBox="0 0 1200 880" width="1200" height="880">

  <defs>
    <marker id="arrow" markerWidth="10" markerHeight="8" refX="8.5" refY="4" orient="auto">
      <polygon points="0 0, 10 4, 0 8" fill="#6f6256"/>
    </marker>
    <style>
      text { font-family: -apple-system, BlinkMacSystemFont, 'Segoe UI', 'Helvetica Neue', Arial, 'PingFang SC', 'Microsoft YaHei', 'Microsoft JhengHei', 'SimHei', sans-serif; letter-spacing: 0; }
      .title { font-size: 28px; font-weight: 800; fill: #1a1a1a; }
      .subtitle { font-size: 14px; font-weight: 600; fill: #8f8a80; }
      .section { font-size: 13px; font-weight: 800; fill: #8b7355; letter-spacing: 3px; }
      .node-type { font-size: 11px; font-weight: 800; fill: #9d9388; letter-spacing: 2.5px; }
      .node-title { font-weight: 800; fill: #1a1a1a; }
      .node-sub { font-size: 12px; font-weight: 650; fill: #6b6257; }
      .footnote { font-size: 12px; font-weight: 650; fill: #a29a8f; }
      .legend { font-size: 12px; font-weight: 750; fill: #6b6257; }
    </style>
  </defs>

<rect width="1200" height="880" fill="#f8f6f3"/>
<text x="48" y="48" text-anchor="start" class="title">IPC and Renderer State Flow</text>
<text x="48" y="75" text-anchor="start" class="subtitle">Typed channels, preload whitelist, stream buses, global listeners, and Jotai state maps</text>
<line x1="48" y1="96" x2="1152" y2="96" stroke="#ded8cf" stroke-width="1.2"/>
<rect x="48" y="120" width="1104" height="124" rx="16" fill="none" stroke="#ded8cf" stroke-width="1.4" stroke-dasharray="6 6"/>
<rect x="48" y="295" width="1104" height="124" rx="16" fill="none" stroke="#ded8cf" stroke-width="1.4" stroke-dasharray="6 6"/>
<rect x="48" y="470" width="1104" height="124" rx="16" fill="none" stroke="#ded8cf" stroke-width="1.4" stroke-dasharray="6 6"/>
<rect x="48" y="645" width="1104" height="116" rx="16" fill="none" stroke="#ded8cf" stroke-width="1.4" stroke-dasharray="6 6"/>
<line x1="315" y1="201" x2="460" y2="201" fill="none" stroke="#6f6256" stroke-width="2.2" marker-end="url(#arrow)"/>
<line x1="690" y1="201" x2="835" y2="201" fill="none" stroke="#6f6256" stroke-width="2.2" marker-end="url(#arrow)"/>
<path d="M 950,242 L 950,270 L 170,270 L 170,328" fill="none" stroke="#6f6256" stroke-width="2.2" marker-end="url(#arrow)"/>
<line x1="255" y1="376" x2="315" y2="376" fill="none" stroke="#6f6256" stroke-width="2.2" marker-end="url(#arrow)"/>
<line x1="505" y1="376" x2="560" y2="376" fill="none" stroke="#6f6256" stroke-width="2.2" marker-end="url(#arrow)"/>
<line x1="750" y1="376" x2="805" y2="376" fill="none" stroke="#6f6256" stroke-width="2.2" marker-end="url(#arrow)"/>
<line x1="995" y1="376" x2="1040" y2="376" fill="none" stroke="#6f6256" stroke-width="2.2" marker-end="url(#arrow)"/>
<line x1="170" y1="417" x2="220" y2="503" fill="none" stroke="#6f6256" stroke-width="2.2" marker-end="url(#arrow)"/>
<line x1="410" y1="417" x2="580" y2="503" fill="none" stroke="#6f6256" stroke-width="2.2" marker-end="url(#arrow)"/>
<line x1="1100" y1="417" x2="935" y2="503" fill="none" stroke="#6f6256" stroke-width="2.2" stroke-dasharray="7 6" marker-end="url(#arrow)"/>
<line x1="335" y1="551" x2="485" y2="551" fill="none" stroke="#6f6256" stroke-width="2.2" marker-end="url(#arrow)"/>
<line x1="675" y1="551" x2="820" y2="551" fill="none" stroke="#6f6256" stroke-width="2.2" marker-end="url(#arrow)"/>
<line x1="220" y1="592" x2="195" y2="683" fill="none" stroke="#6f6256" stroke-width="2.2" marker-end="url(#arrow)"/>
<line x1="580" y1="592" x2="460" y2="683" fill="none" stroke="#6f6256" stroke-width="2.2" marker-end="url(#arrow)"/>
<line x1="935" y1="592" x2="717" y2="683" fill="none" stroke="#6f6256" stroke-width="2.2" stroke-dasharray="7 6" marker-end="url(#arrow)"/>
<line x1="935" y1="592" x2="995" y2="683" fill="none" stroke="#6f6256" stroke-width="2.2" stroke-dasharray="7 6" marker-end="url(#arrow)"/>
<line x1="305" y1="725" x2="365" y2="725" fill="none" stroke="#6f6256" stroke-width="2.2" stroke-dasharray="7 6" marker-end="url(#arrow)"/>
<line x1="555" y1="725" x2="615" y2="725" fill="none" stroke="#6f6256" stroke-width="2.2" stroke-dasharray="7 6" marker-end="url(#arrow)"/>
<text x="68" y="154" text-anchor="start" class="section">CONTRACTS</text>
<text x="68" y="329" text-anchor="start" class="section">MAIN PROCESS HANDLERS</text>
<text x="68" y="504" text-anchor="start" class="section">PRELOAD WHITELIST</text>
<text x="68" y="679" text-anchor="start" class="section">RENDERER STATE</text>
<g id="shared">
<rect x="85" y="160" width="230" height="82" rx="12" fill="#e8e6e3" stroke="#4a4a4a" stroke-width="2.3"/>
<text x="200.0" y="182" text-anchor="middle" class="node-type">PACKAGES</text>
<text x="200.0" y="210" text-anchor="middle" class="node-title" style="font-size:17px">Shared IPC Types</text>
<text x="200.0" y="232" text-anchor="middle" class="node-sub" style="font-size:12px">agent / pipeline / chat</text>
</g>
<g id="localtypes">
<rect x="460" y="160" width="230" height="82" rx="12" fill="#e8e6e3" stroke="#4a4a4a" stroke-width="2.3"/>
<text x="575.0" y="182" text-anchor="middle" class="node-type">APP TYPES</text>
<text x="575.0" y="210" text-anchor="middle" class="node-title" style="font-size:17px">Local Electron Types</text>
<text x="575.0" y="232" text-anchor="middle" class="node-sub" style="font-size:12px">settings / profile / task</text>
</g>
<g id="channels">
<rect x="835" y="160" width="230" height="82" rx="12" fill="#e8e6e3" stroke="#4a4a4a" stroke-width="2.3"/>
<text x="950.0" y="182" text-anchor="middle" class="node-type">NAMES</text>
<text x="950.0" y="210" text-anchor="middle" class="node-title" style="font-size:17px">Channel Constants</text>
<text x="950.0" y="232" text-anchor="middle" class="node-sub" style="font-size:12px">request + stream names</text>
</g>
<g id="ipc">
<rect x="85" y="335" width="170" height="82" rx="12" fill="#f4e4c1" stroke="#4a4a4a" stroke-width="2.3"/>
<text x="170.0" y="357" text-anchor="middle" class="node-type">MAIN</text>
<text x="170.0" y="385" text-anchor="middle" class="node-title" style="font-size:17px">ipc.ts</text>
<text x="170.0" y="407" text-anchor="middle" class="node-sub" style="font-size:12px">root registry</text>
</g>
<g id="agent">
<rect x="315" y="335" width="190" height="82" rx="12" fill="#9dd4c7" stroke="#4a4a4a" stroke-width="2.3"/>
<text x="410.0" y="357" text-anchor="middle" class="node-type">AGENT</text>
<text x="410.0" y="385" text-anchor="middle" class="node-title" style="font-size:17px">Agent Handlers</text>
<text x="410.0" y="407" text-anchor="middle" class="node-sub" style="font-size:12px">send / respond / files</text>
</g>
<g id="pipeline">
<rect x="560" y="335" width="190" height="82" rx="12" fill="#9dd4c7" stroke="#4a4a4a" stroke-width="2.3"/>
<text x="655.0" y="357" text-anchor="middle" class="node-type">PIPELINE</text>
<text x="655.0" y="385" text-anchor="middle" class="node-title" style="font-size:17px">Pipeline Handlers</text>
<text x="655.0" y="407" text-anchor="middle" class="node-sub" style="font-size:12px">start / resume / gate</text>
</g>
<g id="domain">
<rect x="805" y="335" width="190" height="82" rx="12" fill="#9dd4c7" stroke="#4a4a4a" stroke-width="2.3"/>
<text x="900.0" y="357" text-anchor="middle" class="node-type">SYSTEM</text>
<text x="900.0" y="385" text-anchor="middle" class="node-title" style="font-size:17px">Domain Handlers</text>
<text x="900.0" y="407" text-anchor="middle" class="node-sub" style="font-size:12px">channels / settings</text>
</g>
<g id="streams">
<rect x="1040" y="335" width="120" height="82" rx="12" fill="#a8c5e6" stroke="#4a4a4a" stroke-width="2.3"/>
<text x="1100.0" y="357" text-anchor="middle" class="node-type">PUSH</text>
<text x="1100.0" y="385" text-anchor="middle" class="node-title" style="font-size:17px">Streams</text>
<text x="1100.0" y="407" text-anchor="middle" class="node-sub" style="font-size:12px">bus / events</text>
</g>
<g id="api">
<rect x="105" y="510" width="230" height="82" rx="12" fill="#f4e4c1" stroke="#4a4a4a" stroke-width="2.3"/>
<text x="220.0" y="532" text-anchor="middle" class="node-type">PRELOAD</text>
<text x="220.0" y="560" text-anchor="middle" class="node-title" style="font-size:17px">window.electronAPI</text>
<text x="220.0" y="582" text-anchor="middle" class="node-sub" style="font-size:12px">contextBridge surface</text>
</g>
<g id="invoke">
<rect x="485" y="510" width="190" height="82" rx="12" fill="#f4e4c1" stroke="#4a4a4a" stroke-width="2.3"/>
<text x="580.0" y="532" text-anchor="middle" class="node-type">RPC</text>
<text x="580.0" y="560" text-anchor="middle" class="node-title" style="font-size:17px">Invoke APIs</text>
<text x="580.0" y="582" text-anchor="middle" class="node-sub" style="font-size:12px">list / create / respond</text>
</g>
<g id="subs">
<rect x="820" y="510" width="230" height="82" rx="12" fill="#f4e4c1" stroke="#4a4a4a" stroke-width="2.3"/>
<text x="935.0" y="532" text-anchor="middle" class="node-type">ASYNC</text>
<text x="935.0" y="560" text-anchor="middle" class="node-title" style="font-size:17px">Event Subscriptions</text>
<text x="935.0" y="582" text-anchor="middle" class="node-sub" style="font-size:12px">STREAM_* / STATUS_*</text>
</g>
<g id="init">
<rect x="85" y="690" width="220" height="70" rx="12" fill="#a8c5e6" stroke="#4a4a4a" stroke-width="2.3"/>
<text x="195.0" y="708" text-anchor="middle" class="node-type">BOOT</text>
<text x="195.0" y="733" text-anchor="middle" class="node-title" style="font-size:15.6px">Top-level Initializers</text>
<text x="195.0" y="750" text-anchor="middle" class="node-sub" style="font-size:12px">main.tsx mounted</text>
</g>
<g id="agentatoms">
<rect x="365" y="690" width="190" height="70" rx="12" fill="#a8c5e6" stroke="#4a4a4a" stroke-width="2.3"/>
<text x="460.0" y="708" text-anchor="middle" class="node-type">JOTAI</text>
<text x="460.0" y="733" text-anchor="middle" class="node-title" style="font-size:17px">Agent Atoms</text>
<text x="460.0" y="750" text-anchor="middle" class="node-sub" style="font-size:12px">live + pending + runtime</text>
</g>
<g id="pipelineatoms">
<rect x="615" y="690" width="205" height="70" rx="12" fill="#a8c5e6" stroke="#4a4a4a" stroke-width="2.3"/>
<text x="717.5" y="708" text-anchor="middle" class="node-type">JOTAI</text>
<text x="717.5" y="733" text-anchor="middle" class="node-title" style="font-size:17px">Pipeline Atoms</text>
<text x="717.5" y="750" text-anchor="middle" class="node-sub" style="font-size:12px">state + gates + records</text>
</g>
<g id="chat">
<rect x="900" y="690" width="190" height="70" rx="12" fill="#a8c5e6" stroke="#4a4a4a" stroke-width="2.3"/>
<text x="995.0" y="708" text-anchor="middle" class="node-type">JOTAI</text>
<text x="995.0" y="733" text-anchor="middle" class="node-title" style="font-size:17px">Chat + Settings</text>
<text x="995.0" y="750" text-anchor="middle" class="node-sub" style="font-size:12px">fallback + tabState</text>
</g>
<g id="legend">
<rect x="912" y="776" width="220" height="64" rx="10" fill="#fffaf3" opacity="40.96"/>
<line x1="930" y1="758" x2="968" y2="758" fill="none" stroke="#6f6256" stroke-width="2.2" marker-end="url(#arrow)"/>
<text x="984" y="803" text-anchor="start" class="legend">primary path</text>
<line x1="930" y1="782" x2="968" y2="782" fill="none" stroke="#6f6256" stroke-width="2.2" stroke-dasharray="7 6" marker-end="url(#arrow)"/>
<text x="984" y="827" text-anchor="start" class="legend">async / persisted state</text>
</g>
<text x="48" y="852" text-anchor="start" class="footnote">Global listeners stay mounted while users switch tabs, settings, file panels, or background sessions.</text>
</svg>
