<svg xmlns="http://www.w3.org/2000/svg" viewBox="0 0 1200 720" width="1200" height="720">
  <style>
    text { font-family: -apple-system, BlinkMacSystemFont, 'Segoe UI', Roboto, Helvetica Neue, 'PingFang SC', 'Microsoft YaHei', 'Microsoft JhengHei', 'SimHei', sans-serif; letter-spacing: 0; }
  </style>
  <defs>
    <marker id="arrow-green" markerWidth="10" markerHeight="7" refX="9" refY="3.5" orient="auto"><polygon points="0 0, 10 3.5, 0 7" fill="#10a37f"/></marker>
    <marker id="arrow-gray" markerWidth="10" markerHeight="7" refX="9" refY="3.5" orient="auto"><polygon points="0 0, 10 3.5, 0 7" fill="#71717a"/></marker>
  </defs>
  <rect width="1200" height="720" fill="#ffffff"/>
  <text x="600" y="34" text-anchor="middle" fill="#0d0d0d" font-size="22" font-weight="600">IPC and Renderer State Flow</text>
  <text x="600" y="58" text-anchor="middle" fill="#6e6e80" font-size="13">Typed invoke paths plus global stream listeners keep sessions alive across navigation</text>
  <rect x="54" y="86" width="1092" height="112" rx="8" ry="8" fill="none" stroke="#e5e5e5" stroke-width="1" stroke-dasharray="4,3"/>
  <text x="66" y="106" fill="#6e6e80" font-size="12" font-weight="500">Renderer Command Path</text>
  <rect x="78" y="120" width="154" height="58" rx="8" ry="8" fill="#ffffff" stroke="#e5e5e5" stroke-width="1.5"/>
  <rect x="78" y="120" width="4" height="58" rx="2" ry="2" fill="#10a37f"/>
  <text x="155" y="151" text-anchor="middle" fill="#0d0d0d" font-size="15" font-weight="600">Component</text>
  <text x="155" y="166" text-anchor="middle" fill="#6e6e80" font-size="12">Composer / Settings</text>
  <rect x="278" y="120" width="154" height="58" rx="8" ry="8" fill="#ffffff" stroke="#e5e5e5" stroke-width="1.5"/>
  <rect x="278" y="120" width="4" height="58" rx="2" ry="2" fill="#10a37f"/>
  <text x="355" y="151" text-anchor="middle" fill="#0d0d0d" font-size="15" font-weight="600">Jotai Action</text>
  <text x="355" y="166" text-anchor="middle" fill="#6e6e80" font-size="12">atoms + helpers</text>
  <rect x="478" y="120" width="180" height="58" rx="8" ry="8" fill="#ffffff" stroke="#e5e5e5" stroke-width="1.5"/>
  <rect x="478" y="120" width="4" height="58" rx="2" ry="2" fill="#10a37f"/>
  <text x="568" y="151" text-anchor="middle" fill="#0d0d0d" font-size="15" font-weight="600">electronAPI</text>
  <text x="568" y="166" text-anchor="middle" fill="#6e6e80" font-size="12">preload facade</text>
  <rect x="710" y="120" width="168" height="58" rx="8" ry="8" fill="#ffffff" stroke="#e5e5e5" stroke-width="1.5"/>
  <rect x="710" y="120" width="4" height="58" rx="2" ry="2" fill="#10a37f"/>
  <text x="794" y="151" text-anchor="middle" fill="#0d0d0d" font-size="15" font-weight="600">IPC Handler</text>
  <text x="794" y="166" text-anchor="middle" fill="#6e6e80" font-size="12">main/ipc/*</text>
  <rect x="930" y="120" width="170" height="58" rx="8" ry="8" fill="#ffffff" stroke="#e5e5e5" stroke-width="1.5"/>
  <rect x="930" y="120" width="4" height="58" rx="2" ry="2" fill="#10a37f"/>
  <text x="1015" y="151" text-anchor="middle" fill="#0d0d0d" font-size="15" font-weight="600">Main Service</text>
  <text x="1015" y="166" text-anchor="middle" fill="#6e6e80" font-size="12">lib domain layer</text>
  <path d="M 232,149 L 278,149" fill="none" stroke="#10a37f" stroke-width="1.5" stroke-linecap="round" stroke-linejoin="round" marker-end="url(#arrow-green)"/>
  <rect x="226.0" y="128" width="58" height="18" rx="4" fill="#ffffff" opacity="0.96"/>
  <text x="255" y="141" text-anchor="middle" fill="#6e6e80" font-size="12">intent</text>
  <path d="M 432,149 L 478,149" fill="none" stroke="#10a37f" stroke-width="1.5" stroke-linecap="round" stroke-linejoin="round" marker-end="url(#arrow-green)"/>
  <rect x="432.0" y="128" width="46" height="18" rx="4" fill="#ffffff" opacity="0.96"/>
  <text x="455" y="141" text-anchor="middle" fill="#6e6e80" font-size="12">call</text>
  <path d="M 658,149 L 710,149" fill="none" stroke="#10a37f" stroke-width="1.5" stroke-linecap="round" stroke-linejoin="round" marker-end="url(#arrow-green)"/>
  <rect x="655.0" y="128" width="58" height="18" rx="4" fill="#ffffff" opacity="0.96"/>
  <text x="684" y="141" text-anchor="middle" fill="#6e6e80" font-size="12">invoke</text>
  <path d="M 878,149 L 930,149" fill="none" stroke="#10a37f" stroke-width="1.5" stroke-linecap="round" stroke-linejoin="round" marker-end="url(#arrow-green)"/>
  <rect x="871.5" y="128" width="65" height="18" rx="4" fill="#ffffff" opacity="0.96"/>
  <text x="904" y="141" text-anchor="middle" fill="#6e6e80" font-size="12">execute</text>
  <rect x="54" y="246" width="1092" height="154" rx="8" ry="8" fill="none" stroke="#e5e5e5" stroke-width="1" stroke-dasharray="4,3"/>
  <text x="66" y="266" fill="#6e6e80" font-size="12" font-weight="500">Stream Return Path</text>
  <rect x="88" y="294" width="166" height="58" rx="8" ry="8" fill="#ffffff" stroke="#e5e5e5" stroke-width="1.5"/>
  <rect x="88" y="294" width="4" height="58" rx="2" ry="2" fill="#10a37f"/>
  <text x="171" y="325" text-anchor="middle" fill="#0d0d0d" font-size="15" font-weight="600">Event Sources</text>
  <text x="171" y="340" text-anchor="middle" fill="#6e6e80" font-size="12">AgentBus / StreamBus</text>
  <rect x="318" y="294" width="192" height="58" rx="8" ry="8" fill="#ffffff" stroke="#e5e5e5" stroke-width="1.5"/>
  <rect x="318" y="294" width="4" height="58" rx="2" ry="2" fill="#10a37f"/>
  <text x="414" y="325" text-anchor="middle" fill="#0d0d0d" font-size="15" font-weight="600">Preload Listeners</text>
  <text x="414" y="340" text-anchor="middle" fill="#6e6e80" font-size="12">ipcRenderer.on()</text>
  <rect x="576" y="294" width="210" height="58" rx="8" ry="8" fill="#ffffff" stroke="#e5e5e5" stroke-width="1.5"/>
  <rect x="576" y="294" width="4" height="58" rx="2" ry="2" fill="#10a37f"/>
  <text x="681" y="325" text-anchor="middle" fill="#0d0d0d" font-size="15" font-weight="600">Global Hooks</text>
  <text x="681" y="340" text-anchor="middle" fill="#6e6e80" font-size="12">mounted in main.tsx</text>
  <rect x="850" y="278" width="224" height="92" rx="8" ry="8" fill="#ffffff" stroke="#e5e5e5" stroke-width="1.5"/>
  <rect x="850" y="278" width="4" height="92" rx="2" ry="2" fill="#10a37f"/>
  <text x="962" y="309" text-anchor="middle" fill="#0d0d0d" font-size="15" font-weight="600">Jotai Maps</text>
  <text x="962" y="358" text-anchor="middle" fill="#6e6e80" font-size="12">state, gates, live output</text>
  <path d="M 254,323 L 318,323" fill="none" stroke="#10a37f" stroke-width="1.5" stroke-linecap="round" stroke-linejoin="round" marker-end="url(#arrow-green)" stroke-dasharray="4,3"/>
  <rect x="263.0" y="302" width="46" height="18" rx="4" fill="#ffffff" opacity="0.96"/>
  <text x="286" y="315" text-anchor="middle" fill="#6e6e80" font-size="12">send</text>
  <path d="M 510,323 L 576,323" fill="none" stroke="#10a37f" stroke-width="1.5" stroke-linecap="round" stroke-linejoin="round" marker-end="url(#arrow-green)" stroke-dasharray="4,3"/>
  <rect x="507.0" y="302" width="72" height="18" rx="4" fill="#ffffff" opacity="0.96"/>
  <text x="543" y="315" text-anchor="middle" fill="#6e6e80" font-size="12">callback</text>
  <path d="M 786,323 L 850,323" fill="none" stroke="#10a37f" stroke-width="1.5" stroke-linecap="round" stroke-linejoin="round" marker-end="url(#arrow-green)" stroke-dasharray="4,3"/>
  <rect x="789.0" y="302" width="58" height="18" rx="4" fill="#ffffff" opacity="0.96"/>
  <text x="818" y="315" text-anchor="middle" fill="#6e6e80" font-size="12">reduce</text>
  <rect x="74" y="462" width="476" height="140" rx="8" ry="8" fill="none" stroke="#e5e5e5" stroke-width="1" stroke-dasharray="4,3"/>
  <text x="86" y="482" fill="#6e6e80" font-size="12" font-weight="500">Agent State Slices</text>
  <rect x="108" y="506" width="128" height="54" rx="8" ry="8" fill="#ffffff" stroke="#e5e5e5" stroke-width="1.5"/>
  <rect x="108" y="506" width="4" height="54" rx="2" ry="2" fill="#10a37f"/>
  <text x="172" y="537" text-anchor="middle" fill="#0d0d0d" font-size="15" font-weight="600">Sessions</text>
  <text x="172" y="548" text-anchor="middle" fill="#6e6e80" font-size="12">agentSessions</text>
  <rect x="270" y="506" width="138" height="54" rx="8" ry="8" fill="#ffffff" stroke="#e5e5e5" stroke-width="1.5"/>
  <rect x="270" y="506" width="4" height="54" rx="2" ry="2" fill="#10a37f"/>
  <text x="339" y="537" text-anchor="middle" fill="#0d0d0d" font-size="15" font-weight="600">Streaming</text>
  <text x="339" y="548" text-anchor="middle" fill="#6e6e80" font-size="12">SDK messages</text>
  <rect x="442" y="506" width="78" height="54" rx="8" ry="8" fill="#ffffff" stroke="#e5e5e5" stroke-width="1.5"/>
  <rect x="442" y="506" width="4" height="54" rx="2" ry="2" fill="#10a37f"/>
  <text x="481" y="537" text-anchor="middle" fill="#0d0d0d" font-size="15" font-weight="600">Pending</text>
  <text x="481" y="548" text-anchor="middle" fill="#6e6e80" font-size="12">queues</text>
  <rect x="650" y="462" width="476" height="140" rx="8" ry="8" fill="none" stroke="#e5e5e5" stroke-width="1" stroke-dasharray="4,3"/>
  <text x="662" y="482" fill="#6e6e80" font-size="12" font-weight="500">Pipeline State Slices</text>
  <rect x="680" y="506" width="130" height="54" rx="8" ry="8" fill="#ffffff" stroke="#e5e5e5" stroke-width="1.5"/>
  <rect x="680" y="506" width="4" height="54" rx="2" ry="2" fill="#10a37f"/>
  <text x="745" y="537" text-anchor="middle" fill="#0d0d0d" font-size="15" font-weight="600">Sessions</text>
  <text x="745" y="548" text-anchor="middle" fill="#6e6e80" font-size="12">pipelineSessions</text>
  <rect x="844" y="506" width="130" height="54" rx="8" ry="8" fill="#ffffff" stroke="#e5e5e5" stroke-width="1.5"/>
  <rect x="844" y="506" width="4" height="54" rx="2" ry="2" fill="#10a37f"/>
  <text x="909" y="537" text-anchor="middle" fill="#0d0d0d" font-size="15" font-weight="600">Snapshots</text>
  <text x="909" y="548" text-anchor="middle" fill="#6e6e80" font-size="12">stateMap</text>
  <rect x="1008" y="506" width="88" height="54" rx="8" ry="8" fill="#ffffff" stroke="#e5e5e5" stroke-width="1.5"/>
  <rect x="1008" y="506" width="4" height="54" rx="2" ry="2" fill="#10a37f"/>
  <text x="1052" y="537" text-anchor="middle" fill="#0d0d0d" font-size="15" font-weight="600">Records</text>
  <text x="1052" y="548" text-anchor="middle" fill="#6e6e80" font-size="12">tail</text>
  <path d="M 920,370 L 920,424 L 312,424 L 312,506" fill="none" stroke="#10a37f" stroke-width="1.5" stroke-linecap="round" stroke-linejoin="round" marker-end="url(#arrow-green)" stroke-dasharray="4,3"/>
  <rect x="562.5" y="403" width="107" height="18" rx="4" fill="#ffffff" opacity="0.96"/>
  <text x="616" y="416" text-anchor="middle" fill="#6e6e80" font-size="12">agent derived</text>
  <path d="M 996,370 L 996,424 L 908,424 L 908,506" fill="none" stroke="#10a37f" stroke-width="1.5" stroke-linecap="round" stroke-linejoin="round" marker-end="url(#arrow-green)" stroke-dasharray="4,3"/>
  <rect x="888.0" y="403" width="128" height="18" rx="4" fill="#ffffff" opacity="0.96"/>
  <text x="952" y="416" text-anchor="middle" fill="#6e6e80" font-size="12">pipeline derived</text>
  <rect x="502" y="642" width="196" height="48" rx="8" ry="8" fill="#ffffff" stroke="#e5e5e5" stroke-width="1.5"/>
  <rect x="502" y="642" width="4" height="48" rx="2" ry="2" fill="#10a37f"/>
  <text x="600" y="673" text-anchor="middle" fill="#0d0d0d" font-size="15" font-weight="600">Visible UI</text>
  <text x="600" y="678" text-anchor="middle" fill="#6e6e80" font-size="12">AppShell, tabs, panels</text>
  <path d="M 312,560 L 312,620 L 600,620 L 600,642" fill="none" stroke="#10a37f" stroke-width="1.5" stroke-linecap="round" stroke-linejoin="round" marker-end="url(#arrow-green)"/>
  <rect x="427.0" y="599" width="58" height="18" rx="4" fill="#ffffff" opacity="0.96"/>
  <text x="456" y="612" text-anchor="middle" fill="#6e6e80" font-size="12">render</text>
  <path d="M 908,560 L 908,620 L 600,620 L 600,642" fill="none" stroke="#10a37f" stroke-width="1.5" stroke-linecap="round" stroke-linejoin="round" marker-end="url(#arrow-green)"/>
  <rect x="725.0" y="599" width="58" height="18" rx="4" fill="#ffffff" opacity="0.96"/>
  <text x="754" y="612" text-anchor="middle" fill="#6e6e80" font-size="12">render</text>
  <g transform="translate(62,654)">
    <line x1="0" y1="8" x2="34" y2="8" stroke="#10a37f" stroke-width="1.5" marker-end="url(#arrow-green)"/>
    <text x="44" y="12" fill="#6e6e80" font-size="12">同步请求 / 主数据流</text>
    <line x1="0" y1="30" x2="34" y2="30" stroke="#10a37f" stroke-width="1.5" stroke-dasharray="4,3" marker-end="url(#arrow-green)"/>
    <text x="44" y="34" fill="#6e6e80" font-size="12">异步事件 / 流式回传</text>
  </g>
</svg>