<svg xmlns="http://www.w3.org/2000/svg" viewBox="0 0 1200 760" width="1200" height="760">
  <style>
    text { font-family: -apple-system, BlinkMacSystemFont, 'Segoe UI', Roboto, Helvetica Neue, 'PingFang SC', 'Microsoft YaHei', 'Microsoft JhengHei', 'SimHei', sans-serif; letter-spacing: 0; }
  </style>
  <defs>
    <marker id="arrow-green" markerWidth="10" markerHeight="7" refX="9" refY="3.5" orient="auto"><polygon points="0 0, 10 3.5, 0 7" fill="#10a37f"/></marker>
    <marker id="arrow-gray" markerWidth="10" markerHeight="7" refX="9" refY="3.5" orient="auto"><polygon points="0 0, 10 3.5, 0 7" fill="#71717a"/></marker>
  </defs>
  <rect width="1200" height="760" fill="#ffffff"/>
  <text x="600" y="34" text-anchor="middle" fill="#0d0d0d" font-size="22" font-weight="600">Local Storage and Configuration Framework</text>
  <text x="600" y="58" text-anchor="middle" fill="#6e6e80" font-size="13">Local-first JSON indexes, JSONL logs, workspace files, and encrypted channel credentials</text>
  <rect x="58" y="88" width="1084" height="596" rx="8" ry="8" fill="none" stroke="#e5e5e5" stroke-width="1" stroke-dasharray="4,3"/>
  <text x="70" y="108" fill="#6e6e80" font-size="12" font-weight="500">~/.codeinsights or ~/.codeinsights-dev</text>
  <rect x="92" y="132" width="474" height="190" rx="8" ry="8" fill="none" stroke="#e5e5e5" stroke-width="1" stroke-dasharray="4,3"/>
  <text x="104" y="152" fill="#6e6e80" font-size="12" font-weight="500">Configuration JSON</text>
  <rect x="118" y="166" width="142" height="58" rx="8" ry="8" fill="#ffffff" stroke="#e5e5e5" stroke-width="1.5"/>
  <rect x="118" y="166" width="4" height="58" rx="2" ry="2" fill="#10a37f"/>
  <text x="189" y="197" text-anchor="middle" fill="#0d0d0d" font-size="14" font-weight="600">channels.json</text>
  <text x="189" y="219" text-anchor="middle" fill="#6e6e80" font-size="12">safeStorage keys</text>
  <rect x="292" y="166" width="142" height="58" rx="8" ry="8" fill="#ffffff" stroke="#e5e5e5" stroke-width="1.5"/>
  <rect x="292" y="166" width="4" height="58" rx="2" ry="2" fill="#10a37f"/>
  <text x="363" y="197" text-anchor="middle" fill="#0d0d0d" font-size="14" font-weight="600">settings.json</text>
  <text x="363" y="219" text-anchor="middle" fill="#6e6e80" font-size="12">theme + defaults</text>
  <rect x="466" y="166" width="72" height="58" rx="8" ry="8" fill="#ffffff" stroke="#e5e5e5" stroke-width="1.5"/>
  <rect x="466" y="166" width="4" height="58" rx="2" ry="2" fill="#10a37f"/>
  <text x="502" y="197" text-anchor="middle" fill="#0d0d0d" font-size="14" font-weight="600">proxy</text>
  <text x="502" y="219" text-anchor="middle" fill="#6e6e80" font-size="12">network</text>
  <rect x="118" y="238" width="142" height="58" rx="8" ry="8" fill="#ffffff" stroke="#e5e5e5" stroke-width="1.5"/>
  <rect x="118" y="238" width="4" height="58" rx="2" ry="2" fill="#10a37f"/>
  <text x="189" y="269" text-anchor="middle" fill="#0d0d0d" font-size="14" font-weight="600">memory.json</text>
  <text x="189" y="291" text-anchor="middle" fill="#6e6e80" font-size="12">Memos config</text>
  <rect x="292" y="238" width="142" height="58" rx="8" ry="8" fill="#ffffff" stroke="#e5e5e5" stroke-width="1.5"/>
  <rect x="292" y="238" width="4" height="58" rx="2" ry="2" fill="#10a37f"/>
  <text x="363" y="269" text-anchor="middle" fill="#0d0d0d" font-size="14" font-weight="600">system prompts</text>
  <text x="363" y="291" text-anchor="middle" fill="#6e6e80" font-size="12">prompt presets</text>
  <rect x="466" y="238" width="72" height="58" rx="8" ry="8" fill="#ffffff" stroke="#e5e5e5" stroke-width="1.5"/>
  <rect x="466" y="238" width="4" height="58" rx="2" ry="2" fill="#10a37f"/>
  <text x="502" y="269" text-anchor="middle" fill="#0d0d0d" font-size="14" font-weight="600">bots</text>
  <text x="502" y="291" text-anchor="middle" fill="#6e6e80" font-size="12">bridge cfg</text>
  <rect x="634" y="132" width="474" height="190" rx="8" ry="8" fill="none" stroke="#e5e5e5" stroke-width="1" stroke-dasharray="4,3"/>
  <text x="646" y="152" fill="#6e6e80" font-size="12" font-weight="500">Session Indexes and Logs</text>
  <ellipse cx="750" cy="166" rx="75.0" ry="12" fill="#ffffff" stroke="#e5e5e5" stroke-width="1.5"/>
  <path d="M 675.0,166 L 675.0,224 Q 750,248 825.0,224 L 825.0,166" fill="#ffffff" stroke="#e5e5e5" stroke-width="1.5"/>
  <ellipse cx="750" cy="224" rx="75.0" ry="12" fill="none" stroke="#e5e5e5" stroke-width="1.5"/>
  <rect x="675.0" y="166" width="4" height="58" fill="#10a37f" opacity="0.85"/>
  <text x="750" y="194" text-anchor="middle" fill="#0d0d0d" font-size="14" font-weight="600">conversations</text>
  <text x="750" y="215" text-anchor="middle" fill="#6e6e80" font-size="12">index + JSONL</text>
  <ellipse cx="938" cy="166" rx="75.0" ry="12" fill="#ffffff" stroke="#e5e5e5" stroke-width="1.5"/>
  <path d="M 863.0,166 L 863.0,224 Q 938,248 1013.0,224 L 1013.0,166" fill="#ffffff" stroke="#e5e5e5" stroke-width="1.5"/>
  <ellipse cx="938" cy="224" rx="75.0" ry="12" fill="none" stroke="#e5e5e5" stroke-width="1.5"/>
  <rect x="863.0" y="166" width="4" height="58" fill="#10a37f" opacity="0.85"/>
  <text x="938" y="194" text-anchor="middle" fill="#0d0d0d" font-size="14" font-weight="600">agent-sessions</text>
  <text x="938" y="215" text-anchor="middle" fill="#6e6e80" font-size="12">SDK JSONL + events</text>
  <ellipse cx="750" cy="252" rx="75.0" ry="12" fill="#ffffff" stroke="#e5e5e5" stroke-width="1.5"/>
  <path d="M 675.0,252 L 675.0,310 Q 750,334 825.0,310 L 825.0,252" fill="#ffffff" stroke="#e5e5e5" stroke-width="1.5"/>
  <ellipse cx="750" cy="310" rx="75.0" ry="12" fill="none" stroke="#e5e5e5" stroke-width="1.5"/>
  <rect x="675.0" y="252" width="4" height="58" fill="#10a37f" opacity="0.85"/>
  <text x="750" y="280" text-anchor="middle" fill="#0d0d0d" font-size="14" font-weight="600">pipeline-sessions</text>
  <text x="750" y="301" text-anchor="middle" fill="#6e6e80" font-size="12">records JSONL</text>
  <ellipse cx="938" cy="252" rx="75.0" ry="12" fill="#ffffff" stroke="#e5e5e5" stroke-width="1.5"/>
  <path d="M 863.0,252 L 863.0,310 Q 938,334 1013.0,310 L 1013.0,252" fill="#ffffff" stroke="#e5e5e5" stroke-width="1.5"/>
  <ellipse cx="938" cy="310" rx="75.0" ry="12" fill="none" stroke="#e5e5e5" stroke-width="1.5"/>
  <rect x="863.0" y="252" width="4" height="58" fill="#10a37f" opacity="0.85"/>
  <text x="938" y="280" text-anchor="middle" fill="#0d0d0d" font-size="14" font-weight="600">contribution tasks</text>
  <text x="938" y="301" text-anchor="middle" fill="#6e6e80" font-size="12">event JSONL</text>
  <rect x="502" y="356" width="196" height="58" rx="8" ry="8" fill="#ffffff" stroke="#e5e5e5" stroke-width="1.5"/>
  <rect x="502" y="356" width="4" height="58" rx="2" ry="2" fill="#10a37f"/>
  <text x="600" y="387" text-anchor="middle" fill="#0d0d0d" font-size="15" font-weight="600">Main Services</text>
  <text x="600" y="409" text-anchor="middle" fill="#6e6e80" font-size="12">safe file + path APIs</text>
  <path d="M 330,322 L 330,356 L 502,385" fill="none" stroke="#10a37f" stroke-width="1.5" stroke-linecap="round" stroke-linejoin="round" marker-end="url(#arrow-green)"/>
  <rect x="373.0" y="349" width="86" height="18" rx="4" fill="#ffffff" opacity="0.96"/>
  <text x="416" y="362" text-anchor="middle" fill="#6e6e80" font-size="12">read/write</text>
  <path d="M 868,322 L 868,356 L 698,385" fill="none" stroke="#10a37f" stroke-width="1.5" stroke-linecap="round" stroke-linejoin="round" marker-end="url(#arrow-green)"/>
  <rect x="754.0" y="349" width="58" height="18" rx="4" fill="#ffffff" opacity="0.96"/>
  <text x="783" y="362" text-anchor="middle" fill="#6e6e80" font-size="12">append</text>
  <rect x="92" y="456" width="474" height="178" rx="8" ry="8" fill="none" stroke="#e5e5e5" stroke-width="1" stroke-dasharray="4,3"/>
  <text x="104" y="476" fill="#6e6e80" font-size="12" font-weight="500">Agent Workspace Tree</text>
  <rect x="118" y="498" width="154" height="58" rx="8" ry="8" fill="#ffffff" stroke="#e5e5e5" stroke-width="1.5"/>
  <rect x="118" y="498" width="4" height="58" rx="2" ry="2" fill="#10a37f"/>
  <text x="195" y="529" text-anchor="middle" fill="#0d0d0d" font-size="14" font-weight="600">workspace index</text>
  <text x="195" y="551" text-anchor="middle" fill="#6e6e80" font-size="12">agent-workspaces.json</text>
  <rect x="310" y="498" width="154" height="58" rx="8" ry="8" fill="#ffffff" stroke="#e5e5e5" stroke-width="1.5"/>
  <rect x="310" y="498" width="4" height="58" rx="2" ry="2" fill="#10a37f"/>
  <text x="387" y="529" text-anchor="middle" fill="#0d0d0d" font-size="14" font-weight="600">workspace slug</text>
  <text x="387" y="551" text-anchor="middle" fill="#6e6e80" font-size="12">mcp + skills</text>
  <rect x="118" y="566" width="154" height="58" rx="8" ry="8" fill="#ffffff" stroke="#e5e5e5" stroke-width="1.5"/>
  <rect x="118" y="566" width="4" height="58" rx="2" ry="2" fill="#10a37f"/>
  <text x="195" y="597" text-anchor="middle" fill="#0d0d0d" font-size="14" font-weight="600">session cwd</text>
  <text x="195" y="619" text-anchor="middle" fill="#6e6e80" font-size="12">isolated runtime</text>
  <rect x="310" y="566" width="154" height="58" rx="8" ry="8" fill="#ffffff" stroke="#e5e5e5" stroke-width="1.5"/>
  <rect x="310" y="566" width="4" height="58" rx="2" ry="2" fill="#10a37f"/>
  <text x="387" y="597" text-anchor="middle" fill="#0d0d0d" font-size="14" font-weight="600">workspace-files</text>
  <text x="387" y="619" text-anchor="middle" fill="#6e6e80" font-size="12">shared local files</text>
  <rect x="634" y="456" width="474" height="178" rx="8" ry="8" fill="none" stroke="#e5e5e5" stroke-width="1" stroke-dasharray="4,3"/>
  <text x="646" y="476" fill="#6e6e80" font-size="12" font-weight="500">Pipeline Runtime State</text>
  <rect x="660" y="498" width="154" height="58" rx="8" ry="8" fill="#ffffff" stroke="#e5e5e5" stroke-width="1.5"/>
  <rect x="660" y="498" width="4" height="58" rx="2" ry="2" fill="#10a37f"/>
  <text x="737" y="529" text-anchor="middle" fill="#0d0d0d" font-size="14" font-weight="600">checkpoints</text>
  <text x="737" y="551" text-anchor="middle" fill="#6e6e80" font-size="12">memory-saver.json</text>
  <rect x="850" y="498" width="154" height="58" rx="8" ry="8" fill="#ffffff" stroke="#e5e5e5" stroke-width="1.5"/>
  <rect x="850" y="498" width="4" height="58" rx="2" ry="2" fill="#10a37f"/>
  <text x="927" y="529" text-anchor="middle" fill="#0d0d0d" font-size="14" font-weight="600">artifacts</text>
  <text x="927" y="551" text-anchor="middle" fill="#6e6e80" font-size="12">stage outputs</text>
  <rect x="660" y="566" width="154" height="58" rx="8" ry="8" fill="#ffffff" stroke="#e5e5e5" stroke-width="1.5"/>
  <rect x="660" y="566" width="4" height="58" rx="2" ry="2" fill="#10a37f"/>
  <text x="737" y="597" text-anchor="middle" fill="#0d0d0d" font-size="14" font-weight="600">patch-work</text>
  <text x="737" y="619" text-anchor="middle" fill="#6e6e80" font-size="12">plans + evidence</text>
  <rect x="850" y="566" width="154" height="58" rx="8" ry="8" fill="#ffffff" stroke="#e5e5e5" stroke-width="1.5"/>
  <rect x="850" y="566" width="4" height="58" rx="2" ry="2" fill="#10a37f"/>
  <text x="927" y="597" text-anchor="middle" fill="#0d0d0d" font-size="14" font-weight="600">git drafts</text>
  <text x="927" y="619" text-anchor="middle" fill="#6e6e80" font-size="12">commit / PR docs</text>
  <path d="M 502,385 L 392,385 L 392,456" fill="none" stroke="#10a37f" stroke-width="1.5" stroke-linecap="round" stroke-linejoin="round" marker-end="url(#arrow-green)"/>
  <rect x="407.5" y="364" width="79" height="18" rx="4" fill="#ffffff" opacity="0.96"/>
  <text x="447" y="377" text-anchor="middle" fill="#6e6e80" font-size="12">workspace</text>
  <path d="M 698,385 L 778,385 L 778,456" fill="none" stroke="#10a37f" stroke-width="1.5" stroke-linecap="round" stroke-linejoin="round" marker-end="url(#arrow-green)"/>
  <rect x="705.5" y="364" width="65" height="18" rx="4" fill="#ffffff" opacity="0.96"/>
  <text x="738" y="377" text-anchor="middle" fill="#6e6e80" font-size="12">recover</text>
  <g transform="translate(62,704)">
    <line x1="0" y1="8" x2="34" y2="8" stroke="#10a37f" stroke-width="1.5" marker-end="url(#arrow-green)"/>
    <text x="44" y="12" fill="#6e6e80" font-size="12">同步请求 / 主数据流</text>
    <line x1="0" y1="30" x2="34" y2="30" stroke="#10a37f" stroke-width="1.5" stroke-dasharray="4,3" marker-end="url(#arrow-green)"/>
    <text x="44" y="34" fill="#6e6e80" font-size="12">异步事件 / 流式回传</text>
  </g>
</svg>